<svg width="62" height="62" viewBox="0 0 62 62" fill="none" xmlns="http://www.w3.org/2000/svg">
<path d="M44.0294 45.4823C43.4741 45.9797 42.621 45.9312 42.1263 45.3772C39.3147 42.2354 35.2605 40.4347 31 40.4347C26.7409 40.4347 22.6853 42.2354 19.8737 45.3772C19.3763 45.9312 18.5259 45.9797 17.9706 45.4823C17.4153 44.9863 17.3694 44.1345 17.8654 43.5792C21.1878 39.8673 25.9753 37.7391 31 37.7391C36.0261 37.7391 40.8135 39.8686 44.1346 43.5792C44.6306 44.1345 44.5834 44.9863 44.0294 45.4823Z" fill="#8A8A8A"/>
<path d="M31 0C13.9069 0 0 13.9069 0 31C0 48.0931 13.9069 62 31 62C48.0931 62 62 48.0931 62 31C62 13.9069 48.0931 0 31 0ZM31 59.3043C15.3922 59.3043 2.69565 46.6078 2.69565 31C2.69565 15.3922 15.3922 2.69565 31 2.69565C46.6078 2.69565 59.3043 15.3922 59.3043 31C59.3043 46.6078 46.6078 59.3043 31 59.3043Z" fill="#8A8A8A"/>
<path d="M41.7826 21.5652C38.0667 21.5652 35.0435 24.5884 35.0435 28.3044C35.0435 29.0484 35.6473 29.6522 36.3913 29.6522C37.1353 29.6522 37.7391 29.0484 37.7391 28.3044C37.7391 26.0751 39.5533 24.2609 41.7826 24.2609C44.0119 24.2609 45.8261 26.0751 45.8261 28.3044C45.8261 29.0484 46.4299 29.6522 47.1739 29.6522C47.9179 29.6522 48.5218 29.0484 48.5218 28.3044C48.5218 24.5884 45.4986 21.5652 41.7826 21.5652Z" fill="#8A8A8A"/>
<path d="M24.2609 28.3044C24.2609 29.0484 24.8647 29.6522 25.6087 29.6522C26.3527 29.6522 26.9565 29.0484 26.9565 28.3044C26.9565 24.5884 23.9334 21.5652 20.2174 21.5652C16.5014 21.5652 13.4783 24.5884 13.4783 28.3044C13.4783 29.0484 14.0821 29.6522 14.8261 29.6522C15.5701 29.6522 16.1739 29.0484 16.1739 28.3044C16.1739 26.0751 17.9881 24.2609 20.2174 24.2609C22.4467 24.2609 24.2609 26.0751 24.2609 28.3044Z" fill="#8A8A8A"/>
</svg>
